<svg width="1325" height="230" viewBox="0 0 1325 230" fill="none" xmlns="http://www.w3.org/2000/svg">
<path d="M366.05 227.293V173.743H384.078C388.938 173.743 393.413 174.941 397.51 177.336C401.623 179.733 404.883 182.987 407.296 187.082C409.702 191.186 410.909 195.662 410.909 200.518C410.909 205.423 409.694 209.908 407.263 213.987C404.834 218.066 401.558 221.303 397.444 223.7C393.324 226.095 388.874 227.293 384.078 227.293H366.05ZM384.078 216.738C386.853 216.738 389.447 216.026 391.862 214.601C394.268 213.177 396.197 211.225 397.641 208.742C399.087 206.265 399.809 203.52 399.809 200.518C399.809 197.523 399.087 194.779 397.641 192.294C396.197 189.817 394.268 187.859 391.862 186.434C389.447 185.01 386.853 184.297 384.078 184.297H377.149V216.738H384.078Z" fill="#A6A6A6"/>
<path d="M459.409 207.188C459.409 209.065 459.253 210.514 458.949 211.525H430.444C431.01 213.881 432.134 215.726 433.826 217.062C435.509 218.382 437.546 219.038 439.934 219.038C442.825 219.038 445.172 218.066 446.996 216.124H458.095C457.307 218.001 456.068 219.896 454.384 221.788C452.718 223.667 450.64 225.221 448.145 226.451C445.665 227.681 442.972 228.297 440.066 228.297C436.405 228.297 433.022 227.374 429.918 225.545C426.806 223.715 424.344 221.23 422.53 218.097C420.731 214.949 419.836 211.51 419.836 207.771C419.836 204.169 420.739 200.793 422.563 197.637C424.401 194.463 426.872 191.954 429.984 190.093C433.088 188.215 436.405 187.276 439.934 187.276C443.498 187.276 446.766 188.151 449.721 189.899C452.693 191.63 455.049 194.01 456.782 197.054C458.53 200.081 459.409 203.455 459.409 207.188ZM439.934 196.535C437.651 196.535 435.665 197.216 433.958 198.575C432.249 199.918 431.077 201.764 430.444 204.111H449.228C448.613 201.83 447.462 199.991 445.781 198.608C444.089 197.231 442.142 196.535 439.934 196.535Z" fill="#A6A6A6"/>
<path d="M484.205 228.297C481.004 228.297 478.171 227.722 475.701 226.581C473.245 225.416 471.349 223.829 470.018 221.821C468.68 219.815 467.958 217.564 467.851 215.055H478.163C478.27 216.528 478.869 217.709 479.97 218.617C481.086 219.507 482.498 219.944 484.205 219.944C485.863 219.944 487.145 219.603 488.048 218.907C488.967 218.219 489.428 217.37 489.428 216.349C489.428 215.08 488.803 214.083 487.555 213.372C486.308 212.658 484.371 211.898 481.743 211.073C479.051 210.254 476.833 209.446 475.11 208.644C473.377 207.827 471.891 206.636 470.642 205.082C469.396 203.513 468.771 201.505 468.771 199.06C468.771 196.819 469.362 194.812 470.545 193.038C471.743 191.25 473.483 189.849 475.766 188.83C478.04 187.793 480.758 187.276 483.91 187.276C486.907 187.276 489.558 187.843 491.858 188.959C494.157 190.084 495.946 191.63 497.243 193.59C498.532 195.556 499.288 197.733 499.51 200.13H489.1C488.747 197.135 487.014 195.629 483.91 195.629C482.4 195.629 481.259 195.921 480.494 196.504C479.724 197.087 479.345 197.847 479.345 198.77C479.345 199.895 479.921 200.778 481.086 201.424C482.244 202.055 484.115 202.743 486.702 203.497C489.435 204.322 491.677 205.132 493.435 205.925C495.208 206.702 496.734 207.9 498.031 209.519C499.321 211.121 499.969 213.193 499.969 215.735C499.969 219.474 498.573 222.502 495.799 224.833C493.04 227.147 489.172 228.297 484.205 228.297Z" fill="#A6A6A6"/>
<path d="M548.314 207.188C548.314 209.065 548.158 210.514 547.854 211.525H519.349C519.915 213.881 521.039 215.726 522.731 217.062C524.414 218.382 526.451 219.038 528.839 219.038C531.73 219.038 534.077 218.066 535.901 216.124H547C546.212 218.001 544.973 219.896 543.289 221.788C541.623 223.667 539.545 225.221 537.05 226.451C534.57 227.681 531.876 228.297 528.971 228.297C525.31 228.297 521.927 227.374 518.823 225.545C515.711 223.715 513.249 221.23 511.435 218.097C509.636 214.949 508.741 211.51 508.741 207.771C508.741 204.169 509.644 200.793 511.468 197.637C513.306 194.463 515.777 191.954 518.889 190.093C521.993 188.215 525.309 187.276 528.839 187.276C532.403 187.276 535.671 188.151 538.626 189.899C541.598 191.63 543.954 194.01 545.687 197.054C547.435 200.081 548.314 203.455 548.314 207.188ZM528.839 196.535C526.556 196.535 524.57 197.216 522.863 198.575C521.154 199.918 519.981 201.764 519.349 204.111H538.133C537.518 201.83 536.367 199.991 534.685 198.608C532.994 197.231 531.047 196.535 528.839 196.535Z" fill="#A6A6A6"/>
<path d="M559.219 227.293V188.28H567.134L568.841 192.1H569.235C570.065 191.088 571.436 190.028 573.34 188.928C575.262 187.826 577.495 187.276 580.04 187.276C583.192 187.276 585.968 187.98 588.381 189.38C590.787 190.788 592.658 192.78 593.996 195.369C595.327 197.945 596 200.907 596 204.274V227.293H585.459V205.18C585.459 202.897 584.704 200.955 583.192 199.352C581.698 197.733 579.842 196.923 577.61 196.923C575.328 196.923 573.455 197.718 571.994 199.287C570.525 200.866 569.793 202.832 569.793 205.18V227.293H559.219Z" fill="#A6A6A6"/>
<path d="M624.401 214.989L633.562 188.28H644.269L629.36 227.293H618.981L604.072 188.28H615.237L624.401 214.989Z" fill="#A6A6A6"/>
<path d="M670.863 228.297C667.291 228.297 663.949 227.366 660.847 225.512C657.759 223.635 655.279 221.125 653.424 217.968C651.561 214.795 650.632 211.396 650.632 207.771C650.632 204.169 651.561 200.793 653.424 197.637C655.279 194.463 657.759 191.954 660.847 190.093C663.949 188.215 667.291 187.276 670.863 187.276C674.425 187.276 677.767 188.215 680.879 190.093C683.983 191.954 686.47 194.463 688.333 197.637C690.189 200.793 691.125 204.169 691.125 207.771C691.125 211.396 690.189 214.795 688.333 217.968C686.47 221.125 683.983 223.635 680.879 225.512C677.767 227.366 674.425 228.297 670.863 228.297ZM670.863 218.649C673.663 218.649 675.986 217.636 677.824 215.605C679.664 213.557 680.583 210.943 680.583 207.771C680.583 204.621 679.664 202.032 677.824 200.001C675.986 197.952 673.663 196.923 670.863 196.923C668.079 196.923 665.773 197.952 663.933 200.001C662.094 202.032 661.175 204.621 661.175 207.771C661.175 210.943 662.094 213.557 663.933 215.605C665.773 217.636 668.079 218.649 670.863 218.649Z" fill="#A6A6A6"/>
<path d="M713.009 173.743H702.435V227.293H713.009V173.743Z" fill="#A6A6A6"/>
<path d="M742.165 214.989L751.327 188.28H762.033L747.124 227.293H736.746L721.837 188.28H733.002L742.165 214.989Z" fill="#A6A6A6"/>
<path d="M781.04 227.293H770.466V188.28H781.04V227.293ZM776.608 183.294C774.94 183.294 773.537 182.735 772.404 181.61C771.263 180.492 770.697 179.117 770.697 177.498C770.697 175.863 771.263 174.48 772.404 173.355C773.537 172.237 774.94 171.67 776.608 171.67C778.249 171.67 779.638 172.237 780.779 173.355C781.911 174.48 782.486 175.863 782.486 177.498C782.486 179.117 781.911 180.492 780.779 181.61C779.638 182.735 778.249 183.294 776.608 183.294Z" fill="#A6A6A6"/>
<path d="M836.056 187.276C840.455 187.276 843.912 188.734 846.433 191.647C848.969 194.561 850.243 198.641 850.243 203.886V227.293H839.7V204.274C839.7 202.032 839.117 200.251 837.96 198.931C836.794 197.596 835.332 196.923 833.559 196.923C831.803 196.923 830.35 197.596 829.193 198.931C828.026 200.251 827.451 202.032 827.451 204.274V227.293H816.877V204.274C816.877 202.032 816.294 200.251 815.136 198.931C813.97 197.596 812.509 196.923 810.735 196.923C808.979 196.923 807.526 197.596 806.367 198.931C805.202 200.251 804.627 202.032 804.627 204.274V227.293H794.053V188.28H801.968L803.675 192.1H804.069C804.791 191.088 805.991 190.028 807.682 188.928C809.364 187.826 811.344 187.276 813.626 187.276C816.319 187.276 818.56 187.843 820.357 188.959C822.172 190.084 823.576 191.355 824.561 192.78C825.654 191.355 827.23 190.084 829.29 188.959C831.368 187.843 833.625 187.276 836.056 187.276Z" fill="#A6A6A6"/>
<path d="M900.367 207.188C900.367 209.065 900.211 210.514 899.907 211.525H871.402C871.968 213.881 873.092 215.726 874.783 217.062C876.467 218.382 878.503 219.038 880.891 219.038C883.782 219.038 886.13 218.066 887.953 216.124H899.052C898.264 218.001 897.025 219.896 895.342 221.788C893.675 223.667 891.598 225.221 889.103 226.451C886.623 227.681 883.929 228.297 881.024 228.297C877.362 228.297 873.979 227.374 870.875 225.545C867.764 223.715 865.302 221.23 863.487 218.097C861.689 214.949 860.793 211.51 860.793 207.771C860.793 204.169 861.697 200.793 863.52 197.637C865.358 194.463 867.83 191.954 870.942 190.093C874.045 188.215 877.362 187.276 880.891 187.276C884.456 187.276 887.723 188.151 890.679 189.899C893.65 191.63 896.007 194.01 897.739 197.054C899.487 200.081 900.367 203.455 900.367 207.188ZM880.891 196.535C878.609 196.535 876.623 197.216 874.916 198.575C873.207 199.918 872.034 201.764 871.402 204.111H890.185C889.571 201.83 888.42 199.991 886.738 198.608C885.047 197.231 883.1 196.535 880.891 196.535Z" fill="#A6A6A6"/>
<path d="M911.272 227.293V188.28H919.187L920.894 192.1H921.288C922.117 191.088 923.489 190.028 925.393 188.928C927.314 187.826 929.548 187.276 932.092 187.276C935.245 187.276 938.021 187.98 940.434 189.38C942.84 190.788 944.711 192.78 946.049 195.369C947.379 197.945 948.053 200.907 948.053 204.274V227.293H937.512V205.18C937.512 202.897 936.757 200.955 935.245 199.352C933.75 197.733 931.895 196.923 929.663 196.923C927.381 196.923 925.508 197.718 924.047 199.287C922.578 200.866 921.846 202.832 921.846 205.18V227.293H911.272Z" fill="#A6A6A6"/>
<path d="M976.781 228.297C972.84 228.297 969.623 227.025 967.126 224.477C964.647 221.91 963.415 218.438 963.415 214.051V197.539H957.274V189.024H960C961.511 189.024 962.668 188.636 963.482 187.859C964.311 187.066 964.729 185.932 964.729 184.46V178.469H973.958V188.28H982.134V197.539H973.958V212.983C973.958 214.82 974.434 216.205 975.402 217.126C976.363 218.034 977.702 218.486 979.409 218.486C980.501 218.486 981.412 218.317 982.134 217.968V227.454C980.509 228.014 978.728 228.297 976.781 228.297Z" fill="#A6A6A6"/>
<path d="M1011.43 228.297C1007.86 228.297 1004.52 227.366 1001.42 225.512C998.33 223.635 995.85 221.125 993.995 217.968C992.131 214.795 991.203 211.396 991.203 207.771C991.203 204.169 992.131 200.793 993.995 197.637C995.85 194.463 998.33 191.954 1001.42 190.093C1004.52 188.215 1007.86 187.276 1011.43 187.276C1015 187.276 1018.34 188.215 1021.45 190.093C1024.55 191.954 1027.04 194.463 1028.9 197.637C1030.76 200.793 1031.7 204.169 1031.7 207.771C1031.7 211.396 1030.76 214.795 1028.9 217.968C1027.04 221.125 1024.55 223.635 1021.45 225.512C1018.34 227.366 1015 228.297 1011.43 228.297ZM1011.43 218.649C1014.23 218.649 1016.56 217.636 1018.39 215.605C1020.23 213.557 1021.15 210.943 1021.15 207.771C1021.15 204.621 1020.23 202.032 1018.39 200.001C1016.56 197.952 1014.23 196.923 1011.43 196.923C1008.65 196.923 1006.34 197.952 1004.5 200.001C1002.66 202.032 1001.75 204.621 1001.75 207.771C1001.75 210.943 1002.66 213.557 1004.5 215.605C1006.34 217.636 1008.65 218.649 1011.43 218.649Z" fill="#A6A6A6"/>
<path d="M1103.61 173.743V184.297H1078V197.15H1100.03V207.252H1078V227.293H1066.9V173.743H1103.61Z" fill="#A6A6A6"/>
<path d="M1125.27 173.743H1114.69V227.293H1125.27V173.743Z" fill="#A6A6A6"/>
<path d="M1154.26 228.297C1151.1 228.297 1148.32 227.593 1145.91 226.193C1143.5 224.792 1141.63 222.809 1140.3 220.234C1138.96 217.645 1138.3 214.666 1138.3 211.298V188.28H1148.84V210.392C1148.84 212.683 1149.58 214.633 1151.07 216.253C1152.58 217.855 1154.45 218.649 1156.69 218.649C1158.96 218.649 1160.83 217.863 1162.3 216.285C1163.76 214.691 1164.5 212.724 1164.5 210.392V188.28H1175.08V227.293H1167.16L1165.45 223.473H1165.06C1164.22 224.492 1162.84 225.544 1160.92 226.645C1159.02 227.747 1156.79 228.297 1154.26 228.297Z" fill="#A6A6A6"/>
<path d="M1204.17 228.297C1200.23 228.297 1197.01 227.025 1194.51 224.477C1192.03 221.91 1190.8 218.438 1190.8 214.051V197.539H1184.66V189.024H1187.38C1188.9 189.024 1190.05 188.636 1190.87 187.859C1191.7 187.066 1192.11 185.932 1192.11 184.46V178.469H1201.34V188.28H1209.52V197.539H1201.34V212.983C1201.34 214.82 1201.82 216.205 1202.79 217.126C1203.75 218.034 1205.09 218.486 1206.79 218.486C1207.89 218.486 1208.8 218.317 1209.52 217.968V227.454C1207.89 228.014 1206.11 228.297 1204.17 228.297Z" fill="#A6A6A6"/>
<path d="M1236.75 228.297C1232.81 228.297 1229.59 227.025 1227.1 224.477C1224.62 221.91 1223.39 218.438 1223.39 214.051V197.539H1217.24V189.024H1219.97C1221.48 189.024 1222.64 188.636 1223.45 187.859C1224.28 187.066 1224.7 185.932 1224.7 184.46V178.469H1233.93V188.28H1242.1V197.539H1233.93V212.983C1233.93 214.82 1234.4 216.205 1235.37 217.126C1236.33 218.034 1237.67 218.486 1239.38 218.486C1240.47 218.486 1241.38 218.317 1242.1 217.968V227.454C1240.48 228.014 1238.7 228.297 1236.75 228.297Z" fill="#A6A6A6"/>
<path d="M1290.75 207.188C1290.75 209.065 1290.59 210.514 1290.29 211.525H1261.78C1262.35 213.881 1263.47 215.726 1265.16 217.062C1266.85 218.382 1268.88 219.038 1271.27 219.038C1274.16 219.038 1276.51 218.066 1278.33 216.124H1289.43C1288.64 218.001 1287.4 219.896 1285.72 221.788C1284.05 223.667 1281.98 225.221 1279.48 226.451C1277 227.681 1274.31 228.297 1271.4 228.297C1267.74 228.297 1264.36 227.374 1261.25 225.545C1258.14 223.715 1255.68 221.23 1253.87 218.097C1252.07 214.949 1251.17 211.51 1251.17 207.771C1251.17 204.169 1252.08 200.793 1253.9 197.637C1255.74 194.463 1258.21 191.954 1261.32 190.093C1264.42 188.215 1267.74 187.276 1271.27 187.276C1274.83 187.276 1278.1 188.151 1281.06 189.899C1284.03 191.63 1286.39 194.01 1288.12 197.054C1289.87 200.081 1290.75 203.455 1290.75 207.188ZM1271.27 196.535C1268.99 196.535 1267 197.216 1265.29 198.575C1263.59 199.918 1262.41 201.764 1261.78 204.111H1280.56C1279.95 201.83 1278.8 199.991 1277.12 198.608C1275.43 197.231 1273.48 196.535 1271.27 196.535Z" fill="#A6A6A6"/>
<path d="M1301.65 227.293V188.28H1309.57L1311.27 192.1H1311.67C1312.46 191.088 1313.64 190.028 1315.21 188.928C1316.79 187.826 1318.68 187.276 1320.9 187.276C1322.29 187.276 1323.49 187.405 1324.48 187.664V198.058C1323.49 197.822 1322.18 197.701 1320.53 197.701C1317.99 197.701 1315.97 198.462 1314.46 199.968C1312.96 201.457 1312.23 203.528 1312.23 206.184V227.293H1301.65Z" fill="#A6A6A6"/>
<path d="M377.524 3.85726H425.241L461.003 107.527H462.088L497.85 3.85726H545.567V153.468H513.022V47.6629H511.939L475.092 153.468H447.998L411.12 47.6629H410.036V153.468H377.524V3.85726Z" fill="#1D1B1B"/>
<path d="M620.372 155.604C611.678 155.604 603.861 154.285 596.924 151.654C590.003 149.025 584.084 145.212 579.158 140.226C574.248 135.24 570.496 129.112 567.894 121.836C565.282 114.568 563.986 106.223 563.986 96.8099C563.986 87.4203 565.282 79.0921 567.894 71.8145C570.496 64.5462 574.248 58.4108 579.158 53.4254C584.084 48.44 590.003 44.6357 596.924 41.9969C603.861 39.3659 611.678 38.0465 620.372 38.0465C628.754 38.0465 636.341 39.4389 643.13 42.2238C649.912 44.9915 655.724 48.9093 660.568 53.9755C665.404 59.0262 669.123 65.0155 671.735 71.9451C674.337 78.8575 675.642 86.4335 675.642 94.6731C675.642 96.2505 675.56 97.7486 675.412 99.1736C675.281 100.597 675.133 101.884 674.985 103.026C674.854 104.305 674.706 105.446 674.558 106.457H595.414C596.571 112.868 599.101 118.211 603 122.484C606.916 126.758 612.704 128.895 620.372 128.895C626.283 128.895 630.651 127.939 633.476 126.012C636.3 124.094 638.796 121.496 640.963 118.211H673.475C672.178 123.05 670.191 127.712 667.497 132.197C664.821 136.688 661.356 140.679 657.087 144.176C652.834 147.673 647.67 150.457 641.587 152.529C635.52 154.577 628.45 155.604 620.372 155.604ZM644.213 83.989C643.622 81.5771 642.711 79.2289 641.488 76.9631C640.257 74.6802 638.673 72.6086 636.726 70.7469C634.773 68.8929 632.424 67.4367 629.666 66.3753C626.924 65.2999 623.828 64.7576 620.372 64.7576C613.278 64.7576 607.737 66.6193 603.755 70.3257C599.789 74.0166 597.006 78.5731 595.414 83.989H644.213Z" fill="#1D1B1B"/>
<path d="M691.902 40.1833H717.912L721.164 53.0042H722.247C726.006 48.1727 730.489 44.474 735.678 41.899C740.883 39.3332 746.531 38.0465 752.624 38.0465C758.839 38.0465 764.544 39.083 769.733 41.1546C774.938 43.2106 779.388 46.2301 783.066 50.2209C786.761 54.218 789.65 59.0262 791.736 64.6596C793.839 70.2931 794.888 76.7362 794.888 83.989V153.468H764.544V88.2626C764.544 80.7099 762.739 74.9071 759.126 70.8432C755.513 66.7887 750.457 64.7576 743.954 64.7576C737.452 64.7576 732.206 66.9425 728.224 71.297C724.233 75.6359 722.247 81.2927 722.247 88.2626V153.468H691.902V40.1833Z" fill="#1D1B1B"/>
<path d="M861.036 153.468C849.032 153.468 840.068 150.619 834.139 144.92C828.204 139.222 825.241 131.032 825.241 120.348V67.962H806.817V40.1833H825.241L829.576 10.2677H855.585V40.1833H882.711V67.962H855.585V115.005C855.585 118.267 856.553 120.865 858.508 122.808C860.478 124.733 863.122 125.689 866.454 125.689H882.711V153.468H861.036Z" fill="#1D1B1B"/>
<path d="M901.127 3.85726H931.471V51.9366H932.554C936.314 47.6629 940.51 44.2875 945.132 41.8026C949.771 39.3006 955.345 38.0465 961.847 38.0465C968.062 38.0465 973.769 39.083 978.958 41.1546C984.163 43.2106 988.613 46.2301 992.291 50.2209C995.986 54.218 998.875 59.0262 1000.96 64.6596C1003.06 70.2931 1004.11 76.7362 1004.11 83.989V153.468H973.769V88.2626C973.769 80.7099 971.962 74.9071 968.349 70.8432C964.738 66.7887 959.68 64.7575 953.177 64.7575C946.675 64.7575 941.429 66.9425 937.447 71.297C933.457 75.6359 931.471 81.2927 931.471 88.2626V153.468H901.127V3.85726Z" fill="#1D1B1B"/>
<path d="M1075.68 155.604C1066.98 155.604 1059.17 154.285 1052.23 151.654C1045.31 149.025 1039.39 145.212 1034.46 140.226C1029.55 135.24 1025.8 129.112 1023.2 121.836C1020.59 114.568 1019.29 106.223 1019.29 96.8099C1019.29 87.4203 1020.59 79.0921 1023.2 71.8145C1025.8 64.5462 1029.55 58.4108 1034.46 53.4254C1039.39 48.44 1045.31 44.6357 1052.23 41.9969C1059.17 39.3659 1066.98 38.0465 1075.68 38.0465C1084.35 38.0465 1092.15 39.3659 1099.09 41.9969C1106.03 44.6357 1111.95 48.44 1116.86 53.4254C1121.76 58.4108 1125.51 64.5462 1128.12 71.8145C1130.73 79.0921 1132.03 87.4203 1132.03 96.8099C1132.03 106.223 1130.73 114.568 1128.12 121.836C1125.51 129.112 1121.76 135.24 1116.86 140.226C1111.95 145.212 1106.03 149.025 1099.09 151.654C1092.15 154.285 1084.35 155.604 1075.68 155.604ZM1075.68 128.895C1079.13 128.895 1082.45 128.295 1085.63 127.081C1088.82 125.875 1091.61 123.956 1093.97 121.319C1096.35 118.663 1098.24 115.312 1099.62 111.249C1101 107.194 1101.69 102.378 1101.69 96.8099C1101.69 91.265 1101 86.4646 1099.62 82.4023C1098.24 78.3462 1096.35 75.0034 1093.97 72.3662C1091.61 69.7103 1088.82 67.7849 1085.63 66.5696C1082.45 65.3636 1079.13 64.7576 1075.68 64.7576C1072.2 64.7576 1068.86 65.3636 1065.69 66.5696C1062.52 67.7849 1059.73 69.7103 1057.35 72.3662C1054.96 75.0034 1053.08 78.3462 1051.7 82.4023C1050.32 86.4646 1049.64 91.265 1049.64 96.8099C1049.64 102.378 1050.32 107.194 1051.7 111.249C1053.08 115.312 1054.96 118.663 1057.35 121.319C1059.73 123.956 1062.52 125.875 1065.69 127.081C1068.86 128.295 1072.2 128.895 1075.68 128.895Z" fill="#1D1B1B"/>
<path d="M1148.29 40.1833H1174.3L1177.56 53.0042H1178.64C1181.96 48.1727 1185.94 44.8299 1190.56 42.9682C1195.2 41.1142 1200.26 40.1833 1205.76 40.1833H1219.85V69.0312H1207.93C1198.67 69.0312 1191.46 71.5239 1186.32 76.5093C1181.2 81.4963 1178.64 88.2626 1178.64 96.8099V153.468H1148.29V40.1833Z" fill="#1D1B1B"/>
<path d="M1274.06 155.604C1265.67 155.604 1258.44 154.608 1252.36 152.625C1246.29 150.619 1241.23 147.915 1237.19 144.499C1233.13 141.068 1229.99 137.11 1227.76 132.617C1225.53 128.133 1223.97 123.325 1223.1 118.211H1255.61C1256.2 120.913 1258.05 123.373 1261.16 125.593C1264.26 127.793 1268.56 128.895 1274.06 128.895C1281.57 128.895 1286.69 128.012 1289.43 126.239C1292.19 124.45 1293.57 122.484 1293.57 120.348C1293.57 117.497 1291.94 115.441 1288.68 114.162C1285.44 112.868 1281.35 111.727 1276.43 110.731C1271.52 109.719 1266.22 108.65 1260.5 107.527C1254.79 106.384 1249.47 104.499 1244.54 101.861C1239.63 99.2047 1235.55 95.5713 1232.29 90.9496C1229.05 86.3107 1227.43 80.0712 1227.43 72.2357C1227.43 67.4041 1228.43 62.9284 1230.45 58.7993C1232.49 54.6562 1235.45 51.0539 1239.35 47.9862C1243.24 44.9263 1248.09 42.5066 1253.87 40.7334C1259.66 38.9447 1266.4 38.0465 1274.06 38.0465C1282.14 38.0465 1289.15 38.9774 1295.08 40.8313C1301.01 42.6931 1305.96 45.2262 1309.93 48.44C1313.91 51.6367 1317.02 55.368 1319.25 59.6416C1321.49 63.9153 1323.04 68.4717 1323.92 73.3048H1291.4C1290.81 71.168 1289.29 69.2161 1286.84 67.4445C1284.38 65.6558 1280.12 64.7576 1274.06 64.7576C1269.14 64.7576 1265.37 65.4693 1262.77 66.8944C1260.16 68.3179 1258.86 70.0988 1258.86 72.2357C1258.86 75.0858 1260.48 77.1573 1263.72 78.4519C1266.98 79.7309 1271.06 80.8715 1275.97 81.8848C1280.9 82.8794 1286.22 83.9486 1291.93 85.0892C1297.64 86.2144 1302.95 88.0917 1307.86 90.7227C1312.78 93.3615 1316.86 96.9948 1320.11 101.634C1323.37 106.279 1325 112.512 1325 120.348C1325 124.904 1324.16 129.283 1322.5 133.492C1320.84 137.685 1318.05 141.416 1314.16 144.693C1310.26 147.98 1305.02 150.619 1298.43 152.625C1291.86 154.608 1283.74 155.604 1274.06 155.604Z" fill="#1D1B1B"/>
<path d="M0 0.292178H64.2685C80.9019 0.292178 93.3801 4.84088 101.706 13.9212C110.023 23.0109 114.284 36.4721 114.481 54.2956L115.006 161.816C115.178 184.463 111.196 201.492 103.053 212.905C94.9234 224.301 81.4599 230 62.6591 230H0V0.292178ZM55.0722 189.335C63.5623 189.335 67.8152 185.248 67.8152 177.066V58.5692C67.8152 53.4129 67.4038 49.5355 66.5999 46.9449C65.7865 44.3558 64.2843 42.623 62.1011 41.7326C59.9336 40.8499 56.5918 40.4054 52.0835 40.4054H46.9289V189.335H55.0722Z" fill="#B71B16"/>
<path d="M133.713 230V0.292178H227.011V44.6791H181.167V89.3255H225.107V132.645H181.167V185.354H230V230H133.713Z" fill="#B71B16"/>
<path d="M266.869 230L238.134 0H282.599L299.708 156.475L314.881 0H359.38L330.644 230H266.869Z" fill="#B71B16"/>
</svg>
