<svg width="1335" height="253" viewBox="0 0 1335 253" fill="none" xmlns="http://www.w3.org/2000/svg">
<path d="M379.682 215.347L448.084 0H502.277L570.68 215.347H522.765L493.025 104.371C489.941 93.3612 486.856 81.8011 483.772 69.6906C480.908 57.5801 477.934 45.7998 474.85 34.3499H473.528C470.885 45.7998 468.021 57.5801 464.937 69.6906C462.073 81.8011 459.099 93.3612 456.015 104.371L425.944 215.347H379.682ZM440.443 161.841L450.019 126.5H498.955L508.426 161.841H440.443Z" fill="#797979"/>
<path d="M661.671 219.311C646.691 219.311 633.142 216.008 621.026 209.402C608.91 202.576 599.217 192.778 591.947 180.007C584.897 167.235 581.372 151.822 581.372 133.766C581.372 115.711 585.338 100.297 593.269 87.5261C601.199 74.755 611.553 64.9565 624.33 58.1306C637.108 51.3046 650.876 47.8916 665.636 47.8916C675.77 47.8916 684.802 49.6532 692.733 53.1762C700.663 56.4791 707.603 60.6628 713.551 65.7272L691.741 95.1227C687.776 91.3795 683.921 88.7372 680.176 87.1958C676.651 85.4343 672.686 84.5535 668.28 84.5535C660.129 84.5535 652.969 86.6453 646.801 90.829C640.853 94.7924 636.226 100.517 632.922 108.004C629.618 115.27 627.965 123.858 627.965 133.766C627.965 143.675 629.618 152.372 632.922 159.859C636.226 167.125 640.743 172.74 646.47 176.704C652.418 180.667 659.137 182.649 666.627 182.649C672.355 182.649 677.863 181.438 683.15 179.016C688.437 176.594 693.173 173.621 697.359 170.098L715.533 199.824C707.603 206.65 698.901 211.604 689.428 214.687C679.955 217.769 670.703 219.311 661.671 219.311Z" fill="#797979"/>
<path d="M815.599 219.311C800.619 219.311 787.071 216.008 774.954 209.402C762.838 202.576 753.145 192.778 745.875 180.007C738.826 167.235 735.301 151.822 735.301 133.766C735.301 115.711 739.266 100.297 747.197 87.5261C755.128 74.755 765.481 64.9565 778.259 58.1306C791.036 51.3046 804.804 47.8916 819.564 47.8916C829.698 47.8916 838.73 49.6532 846.661 53.1762C854.592 56.4791 861.531 60.6628 867.479 65.7272L845.67 95.1227C841.704 91.3795 837.849 88.7372 834.104 87.1958C830.579 85.4343 826.614 84.5535 822.208 84.5535C814.057 84.5535 806.897 86.6453 800.729 90.829C794.781 94.7924 790.155 100.517 786.85 108.004C783.546 115.27 781.894 123.858 781.894 133.766C781.894 143.675 783.546 152.372 786.85 159.859C790.155 167.125 794.671 172.74 800.398 176.704C806.347 180.667 813.066 182.649 820.556 182.649C826.283 182.649 831.791 181.438 837.078 179.016C842.365 176.594 847.102 173.621 851.287 170.098L869.462 199.824C861.531 206.65 852.829 211.604 843.356 214.687C833.884 217.769 824.631 219.311 815.599 219.311Z" fill="#797979"/>
<path d="M971.51 219.311C956.089 219.311 942.1 215.898 929.543 209.072C917.207 202.246 907.404 192.557 900.134 180.007C892.864 167.235 889.229 151.822 889.229 133.766C889.229 116.151 892.864 100.958 900.134 88.1867C907.624 75.4156 917.207 65.507 928.882 58.4608C940.558 51.4147 952.895 47.8916 965.892 47.8916C981.093 47.8916 993.76 51.3046 1003.89 58.1306C1014.25 64.9565 1021.96 74.3146 1027.02 86.205C1032.31 97.8751 1034.96 111.197 1034.96 126.17C1034.96 130.133 1034.74 134.097 1034.29 138.06C1033.85 141.803 1033.41 144.666 1032.97 146.648H931.768L931.022 139.381L930.886 131.454L932.277 116.591H995.963C995.963 106.463 993.65 98.3155 989.024 92.1501C984.397 85.7646 977.017 82.5718 966.884 82.5718C960.936 82.5718 955.208 84.2232 949.701 87.5261C944.193 90.829 939.677 96.3338 936.152 104.04C932.628 111.527 930.865 126.17 930.865 133.766C930.865 146.317 933.068 156.336 937.474 163.822C942.1 171.089 947.938 176.373 954.988 179.676C962.037 182.979 969.527 184.631 977.458 184.631C984.067 184.631 990.235 183.75 995.963 181.988C1001.91 180.007 1007.86 177.254 1013.81 173.731L1028.68 201.145C1020.53 206.65 1011.38 211.054 1001.25 214.356C991.337 217.659 981.423 219.311 971.51 219.311Z" fill="#797979"/>
<path d="M1116.47 219.311C1105.67 219.311 1094.55 217.219 1083.09 213.035C1071.86 208.631 1062.16 203.127 1054.01 196.521L1074.5 168.116C1081.99 173.621 1089.26 177.915 1096.31 180.997C1103.36 184.08 1110.52 185.621 1117.79 185.621C1125.5 185.621 1131.12 184.19 1134.64 181.328C1138.17 178.465 1139.93 174.612 1139.93 169.768C1139.93 166.024 1138.28 162.832 1134.97 160.189C1131.89 157.327 1127.7 154.905 1122.42 152.923C1117.35 150.721 1111.95 148.519 1106.22 146.317C1099.39 143.675 1092.56 140.372 1085.74 136.409C1079.13 132.445 1073.51 127.381 1068.88 121.215C1064.48 115.05 1062.27 107.453 1062.27 98.4256C1062.27 83.4526 1067.89 71.342 1079.13 62.094C1090.36 52.6258 1105.23 47.8916 1123.74 47.8916C1136.07 47.8916 1146.87 49.9835 1156.12 54.1671C1165.37 58.3507 1173.41 63.0849 1180.24 68.3694L1160.09 95.7833C1154.14 91.3795 1148.3 87.9665 1142.57 85.5444C1136.84 82.9021 1131.01 81.5809 1125.06 81.5809C1118.23 81.5809 1113.05 83.0122 1109.53 85.8747C1106.22 88.517 1104.57 92.04 1104.57 96.4439C1104.57 99.9669 1106.11 102.94 1109.2 105.362C1112.28 107.784 1116.36 109.986 1121.42 111.967C1126.49 113.949 1131.89 115.931 1137.62 117.913C1144.67 120.555 1151.6 123.858 1158.43 127.821C1165.26 131.564 1170.99 136.629 1175.62 143.014C1180.24 149.18 1182.56 157.217 1182.56 167.125C1182.56 176.814 1180.02 185.621 1174.96 193.548C1169.89 201.475 1162.4 207.751 1152.49 212.375C1142.79 216.999 1130.79 219.311 1116.47 219.311Z" fill="#797979"/>
<path d="M1261.68 219.311C1250.89 219.311 1239.76 217.219 1228.31 213.035C1217.07 208.631 1207.38 203.127 1199.23 196.521L1219.72 168.116C1227.21 173.621 1234.48 177.915 1241.53 180.997C1248.57 184.08 1255.73 185.621 1263 185.621C1270.71 185.621 1276.33 184.19 1279.86 181.328C1283.38 178.465 1285.14 174.612 1285.14 169.768C1285.14 166.024 1283.49 162.832 1280.19 160.189C1277.1 157.327 1272.92 154.905 1267.63 152.923C1262.56 150.721 1257.17 148.519 1251.44 146.317C1244.61 143.675 1237.78 140.372 1230.95 136.409C1224.34 132.445 1218.72 127.381 1214.1 121.215C1209.69 115.05 1207.49 107.453 1207.49 98.4256C1207.49 83.4526 1213.11 71.342 1224.34 62.094C1235.58 52.6258 1250.45 47.8916 1268.95 47.8916C1281.29 47.8916 1292.08 49.9835 1301.34 54.1671C1310.59 58.3507 1318.63 63.0849 1325.46 68.3694L1305.3 95.7833C1299.35 91.3795 1293.52 87.9665 1287.79 85.5444C1282.06 82.9021 1276.22 81.5809 1270.27 81.5809C1263.44 81.5809 1258.27 83.0122 1254.74 85.8747C1251.44 88.517 1249.79 92.04 1249.79 96.4439C1249.79 99.9669 1251.33 102.94 1254.41 105.362C1257.5 107.784 1261.57 109.986 1266.64 111.967C1271.71 113.949 1277.1 115.931 1282.83 117.913C1289.88 120.555 1296.82 123.858 1303.65 127.821C1310.48 131.564 1316.21 136.629 1320.83 143.014C1325.46 149.18 1327.77 157.217 1327.77 167.125C1327.77 176.814 1325.24 185.621 1320.17 193.548C1315.1 201.475 1307.61 207.751 1297.7 212.375C1288.01 216.999 1276 219.311 1261.68 219.311Z" fill="#797979"/>
<path d="M523.68 25.7624L515.495 0.660578H1322.44C1329.38 0.660578 1335 6.27981 1335 13.2115C1335 20.1432 1329.38 25.7624 1322.44 25.7624H523.68Z" fill="#5491ED"/>
<path d="M418.091 253L422.309 227.898H12.5569C5.62193 227.898 0 233.517 0 240.449C0 247.381 5.62193 253 12.5569 253H418.091Z" fill="#797979"/>
<path d="M102.108 219.311C88.229 219.311 75.2314 216.008 63.1151 209.402C51.2191 202.576 41.526 192.778 34.0359 180.007C26.5458 167.235 22.8007 151.822 22.8007 133.766C22.8007 115.711 26.5458 100.297 34.0359 87.5261C41.526 74.755 51.2191 64.9565 63.1151 58.1306C75.2314 51.3046 88.229 47.8916 102.108 47.8916C115.766 47.8916 128.543 51.3046 140.439 58.1306C152.556 64.9565 162.359 74.755 169.849 87.5261C177.339 100.297 181.084 115.711 181.084 133.766C181.084 151.822 177.339 167.235 169.849 180.007C162.359 192.778 152.556 202.576 140.439 209.402C128.543 216.008 115.766 219.311 102.108 219.311ZM102.108 182.649C109.157 182.649 115.105 180.667 119.952 176.704C124.798 172.74 128.433 167.125 130.856 159.859C133.28 152.372 134.491 143.675 134.491 133.766C134.491 123.858 133.28 115.27 130.856 108.004C128.433 100.517 124.798 94.7924 119.952 90.829C115.105 86.6453 109.157 84.5535 102.108 84.5535C94.8379 84.5535 88.7797 86.6453 83.9332 90.829C79.0866 94.7924 75.4517 100.517 73.0285 108.004C70.6052 115.27 69.3936 123.858 69.3936 133.766C69.3936 143.675 70.6052 152.372 73.0285 159.859C75.4517 167.125 79.0866 172.74 83.9332 176.704C88.7797 180.667 94.8379 182.649 102.108 182.649Z" fill="#5491ED"/>
<path d="M215.363 215.347V51.8551H252.373L255.677 72.9935H256.999C264.048 66.1675 271.759 60.3325 280.13 55.4882C288.722 50.4238 298.635 47.8916 309.87 47.8916C327.494 47.8916 340.271 53.7267 348.202 65.3969C356.353 77.067 360.428 93.141 360.428 113.619V215.347H315.157V119.564C315.157 107.233 313.395 98.6458 309.87 93.8016C306.345 88.9574 300.838 86.5352 293.348 86.5352C286.739 86.5352 281.121 88.0766 276.495 91.1593C271.869 94.0218 266.582 98.3155 260.634 104.04V215.347H215.363Z" fill="#5491ED"/>
</svg>
